<?xml version="1.0" encoding="utf-8"?>
<!-- Generator: Adobe Illustrator 16.0.0, SVG Export Plug-In . SVG Version: 6.00 Build 0)  -->
<!DOCTYPE svg PUBLIC "-//W3C//DTD SVG 1.1//EN" "http://www.w3.org/Graphics/SVG/1.1/DTD/svg11.dtd">
<svg version="1.1" id="Layer_1" xmlns="http://www.w3.org/2000/svg" xmlns:xlink="http://www.w3.org/1999/xlink" x="0px" y="0px"
	 width="1568px" height="1400px" viewBox="0 0 1568 1400" enable-background="new 0 0 1568 1400" xml:space="preserve">
<g>
	<g>
		<rect fill="#F0F8FF" width="1568" height="1400"/>
	</g>
	<g>
		<polygon fill="#C8DDF0" points="1373.9,652.7 1281.3,652.7 1281.3,629.7 1281.3,617.6 1281.3,567.5 1181.8,567.5 1181.8,617.6 
			1181.8,629.7 1181.8,688.2 1181.8,700.4 1181.8,758.9 1181.8,771 1181.8,829.5 1181.8,841.7 1181.8,900.2 1181.8,912.3 
			1181.8,970.9 1181.8,983 1181.8,1044.2 1281.3,1044.2 1281.3,1044.3 1373.9,1044.3 1470.3,1044.3 1470.3,1001.5 1470.3,989.3 
			1470.3,903.5 1470.3,891.4 1470.3,805.6 1470.3,793.5 1470.3,707.7 1470.3,695.6 1470.3,652.7 		"/>
		<polygon fill="#C8DDF0" points="153.2,759.8 153.2,785.4 153.2,797.6 153.2,814.2 153.2,826.3 153.2,843 153.2,855.1 153.2,871.7 
			153.2,883.9 153.2,900.5 153.2,912.6 153.2,929.3 153.2,941.4 153.2,958 153.2,970.2 153.2,986.8 153.2,999 153.2,1044.3 
			236.7,1044.3 295,1044.3 295,999 295,986.8 295,970.2 295,958 295,941.4 295,929.3 295,912.6 295,900.5 295,883.9 295,871.7 
			295,855.1 295,843 295,826.3 295,814.2 295,797.6 295,785.4 295,759.8 236.7,759.8 		"/>
		<polygon fill="#C8DDF0" points="471.4,567.5 457.4,567.5 445.2,567.5 431.3,567.5 419.1,567.5 405.2,567.5 393,567.5 379,567.5 
			366.8,567.5 352.9,567.5 332.7,567.5 332.7,1044.2 352.9,1044.2 366.8,1044.2 379,1044.2 393,1044.2 405.2,1044.2 419.1,1044.2 
			431.3,1044.2 445.2,1044.2 457.4,1044.2 471.4,1044.2 491.6,1044.2 581.8,1044.2 581.8,948.9 581.8,853.6 581.8,758.2 
			581.8,662.9 581.8,567.5 491.6,567.5 		"/>
		<polygon fill="#C8DDF0" points="821.5,192.2 759.5,257.7 697.4,323.3 635.4,388.8 635.4,454.4 635.4,519.9 635.4,651 635.4,782.1 
			635.4,847.7 635.4,913.2 635.4,978.8 635.4,1044.3 697.4,1044.3 759.5,1044.3 821.5,1044.3 883.5,1044.3 945.5,1044.3 
			945.5,978.8 945.5,913.2 945.5,847.7 945.5,782.1 945.5,716.6 945.5,651 945.5,585.5 945.5,519.9 945.5,454.4 945.5,388.8 
			945.5,323.3 945.5,257.7 945.5,192.2 945.5,126.6 945.5,61.1 883.5,126.6 		"/>
		<polygon fill="#C8DDF0" points="1029.7,332.1 1017.6,332.1 1007.7,332.1 995.8,332.1 995.8,394.9 995.8,471.2 995.8,547.4 
			995.8,623.6 995.8,699.9 1007.7,699.9 1017.6,699.9 1029.7,699.9 1039.6,699.9 1051.8,699.9 1061.6,699.9 1073.8,699.9 
			1083.6,699.9 1095.8,699.9 1105.6,699.9 1117.6,699.9 1117.6,623.6 1117.6,547.4 1117.6,471.2 1117.6,394.9 1117.6,332.1 
			1117.6,225 1036.4,332.1 		"/>
		<polygon fill="#C8DDF0" points="1095.8,699.9 1083.6,699.9 1073.8,699.9 1061.6,699.9 1051.8,699.9 1039.6,699.9 1029.7,699.9 
			1017.6,699.9 1007.7,699.9 995.8,699.9 995.8,776.1 995.8,852.3 1007.7,852.3 1017.6,852.3 1029.7,852.3 1039.6,852.3 
			1051.8,852.3 1061.6,852.3 1073.8,852.3 1083.6,852.3 1095.8,852.3 1105.6,852.3 1117.6,852.3 1117.6,776.1 1117.6,699.9 
			1105.6,699.9 		"/>
		<polygon fill="#C8DDF0" points="1095.8,852.3 1083.6,852.3 1073.8,852.3 1061.6,852.3 1051.8,852.3 1039.6,852.3 1029.7,852.3 
			1017.6,852.3 1007.7,852.3 995.8,852.3 995.8,928.6 995.8,928.6 995.8,1004.8 995.8,1044.3 1007.7,1044.3 1017.6,1044.3 
			1029.7,1044.3 1039.6,1044.3 1051.8,1044.3 1061.6,1044.3 1073.8,1044.3 1083.6,1044.3 1095.8,1044.3 1105.6,1044.3 
			1117.6,1044.3 1117.6,1004.8 1117.6,928.6 1117.6,928.6 1117.6,852.3 1105.6,852.3 		"/>
	</g>
	<polygon fill="#FFFFFF" points="1261.6,676.7 1261.6,1044.3 1450.7,1044.3 1450.7,1004.1 1354.3,1004.1 1354.3,992.7 1450.7,992.7 
		1450.7,912.2 1354.3,912.2 1354.3,900.8 1450.7,900.8 1450.7,820.3 1354.3,820.3 1354.3,808.9 1450.7,808.9 1450.7,728.4 
		1354.3,728.4 1354.3,717 1450.7,717 1450.7,676.7 	"/>
	<rect y="1044.3" fill="#5EAB8D" width="1568" height="19.9"/>
	<rect y="1064.2" fill="#615539" width="1568" height="19.9"/>
	<g>
		<rect x="133.5" y="974.7" fill="#17A6D0" width="83.5" height="15.6"/>
		<rect x="133.5" y="893.7" fill="#17A6D0" width="83.5" height="15.6"/>
		<rect x="133.5" y="920.7" fill="#17A6D0" width="83.5" height="15.6"/>
		<rect x="133.5" y="1001.7" fill="#17A6D0" width="83.5" height="42.6"/>
		<rect x="133.5" y="947.7" fill="#17A6D0" width="83.5" height="15.6"/>
		<rect x="133.5" y="777.3" fill="#17A6D0" width="83.5" height="24"/>
		<rect x="133.5" y="866.7" fill="#17A6D0" width="83.5" height="15.6"/>
		<rect x="133.5" y="812.7" fill="#17A6D0" width="83.5" height="15.6"/>
		<rect x="133.5" y="839.7" fill="#17A6D0" width="83.5" height="15.6"/>
		<rect x="217.1" y="974.7" fill="#F1F2F2" width="58.2" height="15.6"/>
		<rect x="217.1" y="1001.7" fill="#F1F2F2" width="58.2" height="42.6"/>
		<rect x="217.1" y="947.7" fill="#F1F2F2" width="58.2" height="15.6"/>
		<rect x="217.1" y="893.7" fill="#F1F2F2" width="58.2" height="15.6"/>
		<rect x="217.1" y="920.7" fill="#F1F2F2" width="58.2" height="15.6"/>
		<rect x="217.1" y="839.7" fill="#F1F2F2" width="58.2" height="15.6"/>
		<rect x="217.1" y="777.3" fill="#F1F2F2" width="58.2" height="24"/>
		<rect x="217.1" y="866.7" fill="#F1F2F2" width="58.2" height="15.6"/>
		<rect x="217.1" y="812.7" fill="#F1F2F2" width="58.2" height="15.6"/>
		<rect x="133.5" y="801.3" fill="#00697D" width="83.5" height="11.4"/>
		<rect x="217.1" y="801.3" fill="#D8D9D9" width="58.2" height="11.4"/>
		<rect x="133.5" y="828.3" fill="#00697D" width="83.5" height="11.4"/>
		<rect x="217.1" y="828.3" fill="#D8D9D9" width="58.2" height="11.4"/>
		<rect x="133.5" y="855.3" fill="#00697D" width="83.5" height="11.4"/>
		<rect x="217.1" y="855.3" fill="#D8D9D9" width="58.2" height="11.4"/>
		<rect x="133.5" y="882.3" fill="#00697D" width="83.5" height="11.4"/>
		<rect x="217.1" y="882.3" fill="#D8D9D9" width="58.2" height="11.4"/>
		<rect x="133.5" y="909.3" fill="#00697D" width="83.5" height="11.4"/>
		<rect x="217.1" y="909.3" fill="#D8D9D9" width="58.2" height="11.4"/>
		<rect x="133.5" y="936.3" fill="#00697D" width="83.5" height="11.4"/>
		<rect x="217.1" y="936.3" fill="#D8D9D9" width="58.2" height="11.4"/>
		<rect x="133.5" y="963.3" fill="#00697D" width="83.5" height="11.4"/>
		<rect x="217.1" y="963.3" fill="#D8D9D9" width="58.2" height="11.4"/>
		<rect x="133.5" y="990.3" fill="#00697D" width="83.5" height="11.4"/>
		<rect x="217.1" y="990.3" fill="#D8D9D9" width="58.2" height="11.4"/>
	</g>
	<g>
		<rect x="347.1" y="596.8" fill="#FF817A" width="12.2" height="447.4"/>
		<rect x="373.3" y="596.8" fill="#FF817A" width="12.2" height="447.4"/>
		<rect x="313" y="596.8" fill="#FF817A" width="20.2" height="447.4"/>
		<rect x="399.4" y="596.8" fill="#FF817A" width="12.2" height="447.4"/>
		<rect x="451.7" y="596.8" fill="#FF817A" width="20.2" height="447.4"/>
		<rect x="425.6" y="596.8" fill="#FF817A" width="12.2" height="447.4"/>
		<rect x="333.2" y="596.8" fill="#D66C67" width="13.9" height="447.4"/>
		<rect x="359.3" y="596.8" fill="#D66C67" width="13.9" height="447.4"/>
		<rect x="385.5" y="596.8" fill="#D66C67" width="13.9" height="447.4"/>
		<rect x="411.6" y="596.8" fill="#D66C67" width="13.9" height="447.4"/>
		<rect x="437.8" y="596.8" fill="#D66C67" width="13.9" height="447.4"/>
	</g>
	<g>
		<polygon fill="#FFFFFF" points="471.9,596.8 471.9,686.3 562.1,596.8 		"/>
		<polygon fill="#FF817A" points="471.9,686.3 562.1,686.3 562.1,596.8 		"/>
	</g>
	<g>
		<polygon fill="#00697D" points="1261.6,676.7 1261.6,768.6 1354.3,676.7 		"/>
		<polygon fill="#17A6D0" points="1261.6,768.6 1354.3,768.6 1354.3,676.7 		"/>
	</g>
	<g>
		<polygon fill="#00697D" points="1261.6,768.6 1261.6,860.5 1354.3,768.6 		"/>
		<polygon fill="#17A6D0" points="1261.6,860.5 1354.3,860.5 1354.3,768.6 		"/>
	</g>
	<g>
		<polygon fill="#00697D" points="1261.6,860.5 1261.6,952.4 1354.3,860.5 		"/>
		<polygon fill="#17A6D0" points="1261.6,952.4 1354.3,952.4 1354.3,860.5 		"/>
	</g>
	<g>
		<polygon fill="#00697D" points="1261.6,952.4 1261.6,1044.3 1354.3,952.4 		"/>
		<polygon fill="#17A6D0" points="1261.6,1044.3 1354.3,1044.3 1354.3,952.4 		"/>
	</g>
	<g>
		<polygon fill="#5CD2FF" points="615.7,982.8 615.7,1044.3 677.8,982.8 		"/>
		<polygon fill="#14B2EB" points="615.7,1044.3 677.8,1044.3 677.8,982.8 		"/>
	</g>
	<g>
		<polygon fill="#5CD2FF" points="677.8,982.8 677.8,1044.3 739.8,982.8 		"/>
		<polygon fill="#14B2EB" points="677.8,1044.3 739.8,1044.3 739.8,982.8 		"/>
	</g>
	<g>
		<polygon fill="#5CD2FF" points="739.8,982.8 739.8,1044.3 801.8,982.8 		"/>
		<polygon fill="#14B2EB" points="739.8,1044.3 801.8,1044.3 801.8,982.8 		"/>
	</g>
	<g>
		<polygon fill="#5CD2FF" points="801.8,982.8 801.8,1044.3 863.8,982.8 		"/>
		<polygon fill="#14B2EB" points="801.8,1044.3 863.8,1044.3 863.8,982.8 		"/>
	</g>
	<g>
		<polygon fill="#5CD2FF" points="863.8,982.8 863.8,1044.3 925.9,982.8 		"/>
		<polygon fill="#14B2EB" points="863.8,1044.3 925.9,1044.3 925.9,982.8 		"/>
	</g>
	<g>
		<polygon fill="#5CD2FF" points="615.7,921.3 615.7,982.8 677.8,921.3 		"/>
		<polygon fill="#14B2EB" points="615.7,982.8 677.8,982.8 677.8,921.3 		"/>
	</g>
	<g>
		<polygon fill="#5CD2FF" points="677.8,921.3 677.8,982.8 739.8,921.3 		"/>
		<polygon fill="#14B2EB" points="677.8,982.8 739.8,982.8 739.8,921.3 		"/>
	</g>
	<g>
		<polygon fill="#5CD2FF" points="739.8,921.3 739.8,982.8 801.8,921.3 		"/>
		<polygon fill="#14B2EB" points="739.8,982.8 801.8,982.8 801.8,921.3 		"/>
	</g>
	<g>
		<polygon fill="#5CD2FF" points="801.8,921.3 801.8,982.8 863.8,921.3 		"/>
		<polygon fill="#14B2EB" points="801.8,982.8 863.8,982.8 863.8,921.3 		"/>
	</g>
	<g>
		<polygon fill="#5CD2FF" points="863.8,921.3 863.8,982.8 925.9,921.3 		"/>
		<polygon fill="#14B2EB" points="863.8,982.8 925.9,982.8 925.9,921.3 		"/>
	</g>
	<g>
		<polygon fill="#5CD2FF" points="615.7,859.8 615.7,921.3 677.8,859.8 		"/>
		<polygon fill="#14B2EB" points="615.7,921.3 677.8,921.3 677.8,859.8 		"/>
	</g>
	<g>
		<polygon fill="#5CD2FF" points="677.8,859.8 677.8,921.3 739.8,859.8 		"/>
		<polygon fill="#14B2EB" points="677.8,921.3 739.8,921.3 739.8,859.8 		"/>
	</g>
	<g>
		<polygon fill="#5CD2FF" points="739.8,859.8 739.8,921.3 801.8,859.8 		"/>
		<polygon fill="#14B2EB" points="739.8,921.3 801.8,921.3 801.8,859.8 		"/>
	</g>
	<g>
		<polygon fill="#5CD2FF" points="801.8,859.8 801.8,921.3 863.8,859.8 		"/>
		<polygon fill="#14B2EB" points="801.8,921.3 863.8,921.3 863.8,859.8 		"/>
	</g>
	<g>
		<polygon fill="#5CD2FF" points="863.8,859.8 863.8,921.3 925.9,859.8 		"/>
		<polygon fill="#14B2EB" points="863.8,921.3 925.9,921.3 925.9,859.8 		"/>
	</g>
	<g>
		<polygon fill="#5CD2FF" points="615.7,798.2 615.7,859.8 677.8,798.2 		"/>
		<polygon fill="#14B2EB" points="615.7,859.8 677.8,859.8 677.8,798.2 		"/>
	</g>
	<g>
		<polygon fill="#5CD2FF" points="677.8,798.2 677.8,859.8 739.8,798.2 		"/>
		<polygon fill="#14B2EB" points="677.8,859.8 739.8,859.8 739.8,798.2 		"/>
	</g>
	<g>
		<polygon fill="#5CD2FF" points="739.8,798.2 739.8,859.8 801.8,798.2 		"/>
		<polygon fill="#14B2EB" points="739.8,859.8 801.8,859.8 801.8,798.2 		"/>
	</g>
	<g>
		<polygon fill="#5CD2FF" points="801.8,798.2 801.8,859.8 863.8,798.2 		"/>
		<polygon fill="#14B2EB" points="801.8,859.8 863.8,859.8 863.8,798.2 		"/>
	</g>
	<g>
		<polygon fill="#5CD2FF" points="863.8,798.2 863.8,859.8 925.9,798.2 		"/>
		<polygon fill="#14B2EB" points="863.8,859.8 925.9,859.8 925.9,798.2 		"/>
	</g>
	<g>
		<polygon fill="#5CD2FF" points="739.8,736.7 739.8,798.2 801.8,736.7 		"/>
		<polygon fill="#14B2EB" points="739.8,798.2 801.8,798.2 801.8,736.7 		"/>
	</g>
	<g>
		<polygon fill="#5CD2FF" points="801.8,736.7 801.8,798.2 863.8,736.7 		"/>
		<polygon fill="#14B2EB" points="801.8,798.2 863.8,798.2 863.8,736.7 		"/>
	</g>
	<g>
		<polygon fill="#5CD2FF" points="863.8,736.7 863.8,798.2 925.9,736.7 		"/>
		<polygon fill="#14B2EB" points="863.8,798.2 925.9,798.2 925.9,736.7 		"/>
	</g>
	<g>
		<polygon fill="#5CD2FF" points="739.8,675.2 739.8,736.7 801.8,675.2 		"/>
		<polygon fill="#14B2EB" points="739.8,736.7 801.8,736.7 801.8,675.2 		"/>
	</g>
	<g>
		<polygon fill="#5CD2FF" points="801.8,675.2 801.8,736.7 863.8,675.2 		"/>
		<polygon fill="#14B2EB" points="801.8,736.7 863.8,736.7 863.8,675.2 		"/>
	</g>
	<g>
		<polygon fill="#5CD2FF" points="863.8,675.2 863.8,736.7 925.9,675.2 		"/>
		<polygon fill="#14B2EB" points="863.8,736.7 925.9,736.7 925.9,675.2 		"/>
	</g>
	<g>
		<polygon fill="#5CD2FF" points="739.8,613.7 739.8,675.2 801.8,613.7 		"/>
		<polygon fill="#14B2EB" points="739.8,675.2 801.8,675.2 801.8,613.7 		"/>
	</g>
	<g>
		<polygon fill="#5CD2FF" points="801.8,613.7 801.8,675.2 863.8,613.7 		"/>
		<polygon fill="#14B2EB" points="801.8,675.2 863.8,675.2 863.8,613.7 		"/>
	</g>
	<g>
		<polygon fill="#5CD2FF" points="863.8,613.7 863.8,675.2 925.9,613.7 		"/>
		<polygon fill="#14B2EB" points="863.8,675.2 925.9,675.2 925.9,613.7 		"/>
	</g>
	<polygon fill="#5CD2FF" points="739.8,552.1 739.8,613.7 801.8,552.1 	"/>
	<polygon fill="#14B2EB" points="739.8,613.7 801.8,613.7 801.8,552.1 	"/>
	<g>
		<polygon fill="#5CD2FF" points="801.8,552.1 801.8,613.7 863.8,552.1 		"/>
		<polygon fill="#14B2EB" points="801.8,613.7 863.8,613.7 863.8,552.1 		"/>
	</g>
	<g>
		<polygon fill="#5CD2FF" points="863.8,552.1 863.8,613.7 925.9,552.1 		"/>
		<polygon fill="#14B2EB" points="863.8,613.7 925.9,613.7 925.9,552.1 		"/>
	</g>
	<g>
		<polygon fill="#5CD2FF" points="615.7,490.6 615.7,552.1 677.8,490.6 		"/>
		<polygon fill="#14B2EB" points="615.7,552.1 677.8,552.1 677.8,490.6 		"/>
	</g>
	<g>
		<polygon fill="#5CD2FF" points="677.8,490.6 677.8,552.1 739.8,490.6 		"/>
		<polygon fill="#14B2EB" points="677.8,552.1 739.8,552.1 739.8,490.6 		"/>
	</g>
	<g>
		<polygon fill="#5CD2FF" points="739.8,490.6 739.8,552.1 801.8,490.6 		"/>
		<polygon fill="#14B2EB" points="739.8,552.1 801.8,552.1 801.8,490.6 		"/>
	</g>
	<g>
		<polygon fill="#5CD2FF" points="615.7,552.1 615.7,675.2 739.8,552.1 		"/>
		<polygon fill="#14B2EB" points="615.7,675.2 739.8,675.2 739.8,552.1 		"/>
	</g>
	<g>
		<polygon fill="#5CD2FF" points="615.7,675.2 615.7,798.2 739.8,675.2 		"/>
		<polygon fill="#14B2EB" points="615.7,798.2 739.8,798.2 739.8,675.2 		"/>
	</g>
	<polygon fill="#5CD2FF" points="801.8,490.6 801.8,552.1 863.8,490.6 	"/>
	<polygon fill="#14B2EB" points="801.8,552.1 863.8,552.1 863.8,490.6 	"/>
	<g>
		<polygon fill="#5CD2FF" points="863.8,490.6 863.8,552.1 925.9,490.6 		"/>
		<polygon fill="#14B2EB" points="863.8,552.1 925.9,552.1 925.9,490.6 		"/>
	</g>
	<g>
		<polygon fill="#5CD2FF" points="615.7,429.1 615.7,490.6 677.8,429.1 		"/>
		<polygon fill="#14B2EB" points="615.7,490.6 677.8,490.6 677.8,429.1 		"/>
	</g>
	<g>
		<polygon fill="#5CD2FF" points="677.8,429.1 677.8,490.6 739.8,429.1 		"/>
		<polygon fill="#14B2EB" points="677.8,490.6 739.8,490.6 739.8,429.1 		"/>
	</g>
	<g>
		<polygon fill="#5CD2FF" points="739.8,429.1 739.8,490.6 801.8,429.1 		"/>
		<polygon fill="#14B2EB" points="739.8,490.6 801.8,490.6 801.8,429.1 		"/>
	</g>
	<g>
		<polygon fill="#5CD2FF" points="801.8,429.1 801.8,490.6 863.8,429.1 		"/>
		<polygon fill="#14B2EB" points="801.8,490.6 863.8,490.6 863.8,429.1 		"/>
	</g>
	<polygon fill="#5CD2FF" points="863.8,429.1 863.8,490.6 925.9,429.1 	"/>
	<polygon fill="#14B2EB" points="863.8,490.6 925.9,490.6 925.9,429.1 	"/>
	<polygon opacity="9.999999e-002" fill="#414042" points="863.8,490.6 801.8,552.1 739.8,613.7 739.8,675.2 739.8,736.7 
		739.8,798.2 739.8,859.8 739.8,921.3 739.8,982.8 739.8,1044.3 801.8,1044.3 863.8,1044.3 925.9,1044.3 925.9,982.8 925.9,921.3 
		925.9,859.8 925.9,798.2 925.9,736.7 925.9,675.2 925.9,613.7 925.9,552.1 925.9,490.6 925.9,429.1 	"/>
	<polygon fill="#14B2EB" points="615.7,429.1 677.8,429.1 677.8,367.6 	"/>
	<g>
		<polygon fill="#5CD2FF" points="677.8,367.6 677.8,429.1 739.8,367.6 		"/>
		<polygon fill="#14B2EB" points="677.8,429.1 739.8,429.1 739.8,367.6 		"/>
	</g>
	<g>
		<polygon fill="#5CD2FF" points="739.8,367.6 739.8,429.1 801.8,367.6 		"/>
		<polygon fill="#14B2EB" points="739.8,429.1 801.8,429.1 801.8,367.6 		"/>
	</g>
	<g>
		<polygon fill="#5CD2FF" points="801.8,367.6 801.8,429.1 863.8,367.6 		"/>
		<polygon fill="#14B2EB" points="801.8,429.1 863.8,429.1 863.8,367.6 		"/>
	</g>
	<g>
		<polygon fill="#5CD2FF" points="863.8,367.6 863.8,429.1 925.9,367.6 		"/>
		<polygon fill="#14B2EB" points="863.8,429.1 925.9,429.1 925.9,367.6 		"/>
	</g>
	<polygon fill="#14B2EB" points="677.8,367.6 739.8,367.6 739.8,306 	"/>
	<g>
		<polygon fill="#5CD2FF" points="739.8,306 739.8,367.6 801.8,306 		"/>
		<polygon fill="#14B2EB" points="739.8,367.6 801.8,367.6 801.8,306 		"/>
	</g>
	<g>
		<polygon fill="#5CD2FF" points="801.8,306 801.8,367.6 863.8,306 		"/>
		<polygon fill="#14B2EB" points="801.8,367.6 863.8,367.6 863.8,306 		"/>
	</g>
	<g>
		<polygon fill="#5CD2FF" points="863.8,306 863.8,367.6 925.9,306 		"/>
		<polygon fill="#14B2EB" points="863.8,367.6 925.9,367.6 925.9,306 		"/>
	</g>
	<polygon fill="#14B2EB" points="739.8,306 801.8,306 801.8,244.5 	"/>
	<g>
		<polygon fill="#5CD2FF" points="801.8,244.5 801.8,306 863.8,244.5 		"/>
		<polygon fill="#14B2EB" points="801.8,306 863.8,306 863.8,244.5 		"/>
	</g>
	<g>
		<polygon fill="#5CD2FF" points="863.8,244.5 863.8,306 925.9,244.5 		"/>
		<polygon fill="#14B2EB" points="863.8,306 925.9,306 925.9,244.5 		"/>
	</g>
	<polygon fill="#14B2EB" points="801.8,244.5 863.8,244.5 863.8,183 	"/>
	<g>
		<polygon fill="#5CD2FF" points="863.8,183 863.8,244.5 925.9,183 		"/>
		<polygon fill="#14B2EB" points="863.8,244.5 925.9,244.5 925.9,183 		"/>
	</g>
	<polygon fill="#14B2EB" points="863.8,183 925.9,183 925.9,121.5 	"/>
	<g>
		<polygon fill="#FFFFFF" points="471.9,686.3 471.9,775.8 562.1,686.3 		"/>
		<polygon fill="#FF817A" points="471.9,775.8 562.1,775.8 562.1,686.3 		"/>
	</g>
	<g>
		<polygon fill="#FFFFFF" points="471.9,775.8 471.9,865.3 562.1,775.8 		"/>
		<polygon fill="#FF817A" points="471.9,865.3 562.1,865.3 562.1,775.8 		"/>
	</g>
	<g>
		<polygon fill="#FFFFFF" points="471.9,865.3 471.9,954.8 562.1,865.3 		"/>
		<polygon fill="#FF817A" points="471.9,954.8 562.1,954.8 562.1,865.3 		"/>
	</g>
	<g>
		<polygon fill="#FFFFFF" points="471.9,954.8 471.9,1044.2 562.1,954.8 		"/>
		<polygon fill="#FF817A" points="471.9,1044.2 562.1,1044.2 562.1,954.8 		"/>
	</g>
	<polygon fill="#FFFFFF" points="1016.7,375.8 1097.9,375.8 1097.9,275.3 	"/>
	<rect x="997.9" y="935.7" fill="#FFFFFF" width="12.2" height="108.7"/>
	<rect x="976.1" y="935.7" fill="#FFFFFF" width="12" height="108.7"/>
	<rect x="1063.9" y="935.7" fill="#FFFFFF" width="12.2" height="108.7"/>
	<rect x="1086" y="935.7" fill="#FFFFFF" width="12" height="108.7"/>
	<rect x="1019.9" y="935.7" fill="#FFFFFF" width="12.2" height="108.7"/>
	<rect x="1041.9" y="935.7" fill="#FFFFFF" width="12.2" height="108.7"/>
	<rect x="1019.9" y="434.8" fill="#FFFFFF" width="12.2" height="71.5"/>
	<rect x="1041.9" y="434.8" fill="#FFFFFF" width="12.2" height="71.5"/>
	<rect x="1063.9" y="434.8" fill="#FFFFFF" width="12.2" height="71.5"/>
	<rect x="997.9" y="434.8" fill="#FFFFFF" width="12.2" height="71.5"/>
	<rect x="976.1" y="434.8" fill="#FFFFFF" width="12" height="71.5"/>
	<rect x="1086" y="434.8" fill="#FFFFFF" width="12" height="71.5"/>
	<rect x="1041.9" y="375.8" fill="#FF8A5C" width="12.2" height="59"/>
	<rect x="1086" y="375.8" fill="#FF8A5C" width="12" height="59"/>
	<rect x="1019.9" y="375.8" fill="#FF8A5C" width="12.2" height="59"/>
	<rect x="976.1" y="375.8" fill="#FF8A5C" width="12" height="59"/>
	<rect x="1063.9" y="375.8" fill="#FF8A5C" width="12.2" height="59"/>
	<rect x="997.9" y="375.8" fill="#FF8A5C" width="12.2" height="59"/>
	<rect x="1063.9" y="506.4" fill="#FF8A5C" width="12.2" height="71.5"/>
	<rect x="1041.9" y="506.4" fill="#FF8A5C" width="12.2" height="71.5"/>
	<rect x="1019.9" y="506.4" fill="#FF8A5C" width="12.2" height="71.5"/>
	<rect x="1086" y="506.4" fill="#FF8A5C" width="12" height="71.5"/>
	<rect x="976.1" y="506.4" fill="#FF8A5C" width="12" height="71.5"/>
	<rect x="997.9" y="506.4" fill="#FF8A5C" width="12.2" height="71.5"/>
	<rect x="988.1" y="935.7" fill="#D1D3D4" width="9.8" height="108.7"/>
	<rect x="988.1" y="434.8" fill="#D1D3D4" width="9.8" height="71.5"/>
	<rect x="988.1" y="375.8" fill="#E67C52" width="9.8" height="59"/>
	<rect x="988.1" y="506.4" fill="#E67C52" width="9.8" height="71.5"/>
	<rect x="1010.1" y="935.7" fill="#D1D3D4" width="9.8" height="108.7"/>
	<rect x="1010.1" y="434.8" fill="#D1D3D4" width="9.8" height="71.5"/>
	<rect x="1010.1" y="375.8" fill="#E67C52" width="9.8" height="59"/>
	<rect x="1010.1" y="506.4" fill="#E67C52" width="9.8" height="71.5"/>
	<rect x="1032.1" y="935.7" fill="#D1D3D4" width="9.8" height="108.7"/>
	<rect x="1032.1" y="434.8" fill="#D1D3D4" width="9.8" height="71.5"/>
	<rect x="1032.1" y="375.8" fill="#E67C52" width="9.8" height="59"/>
	<rect x="1032.1" y="506.4" fill="#E67C52" width="9.8" height="71.5"/>
	<rect x="1054.1" y="935.7" fill="#D1D3D4" width="9.8" height="108.7"/>
	<rect x="1054.1" y="434.8" fill="#D1D3D4" width="9.8" height="71.5"/>
	<rect x="1054.1" y="375.8" fill="#E67C52" width="9.8" height="59"/>
	<rect x="1054.1" y="506.4" fill="#E67C52" width="9.8" height="71.5"/>
	<rect x="1076.1" y="935.7" fill="#D1D3D4" width="9.8" height="108.7"/>
	<rect x="1076.1" y="434.8" fill="#D1D3D4" width="9.8" height="71.5"/>
	<rect x="1076.1" y="375.8" fill="#E67C52" width="9.8" height="59"/>
	<rect x="1076.1" y="506.4" fill="#E67C52" width="9.8" height="71.5"/>
	<g>
		<rect x="1162.1" y="986.8" fill="#17A6D0" width="99.5" height="57.5"/>
		<rect x="1162.1" y="721.5" fill="#17A6D0" width="99.5" height="54.9"/>
		<rect x="1162.1" y="787.8" fill="#17A6D0" width="99.5" height="54.9"/>
		<rect x="1162.1" y="920.5" fill="#17A6D0" width="99.5" height="54.9"/>
		<rect x="1162.1" y="596.8" fill="#17A6D0" width="99.5" height="47"/>
		<rect x="1162.1" y="854.1" fill="#17A6D0" width="99.5" height="54.9"/>
		<rect x="1162.1" y="655.2" fill="#17A6D0" width="99.5" height="54.9"/>
		<rect x="1162.1" y="643.8" fill="#00697D" width="99.5" height="11.4"/>
		<rect x="1162.1" y="710.1" fill="#00697D" width="99.5" height="11.4"/>
		<rect x="1162.1" y="776.4" fill="#00697D" width="99.5" height="11.4"/>
		<rect x="1162.1" y="842.7" fill="#00697D" width="99.5" height="11.4"/>
		<rect x="1162.1" y="909.1" fill="#00697D" width="99.5" height="11.4"/>
		<rect x="1162.1" y="975.4" fill="#00697D" width="99.5" height="11.4"/>
	</g>
	<rect x="1354.3" y="717" fill="#D8D9D9" width="96.4" height="11.4"/>
	<rect x="1354.3" y="808.9" fill="#D8D9D9" width="96.4" height="11.4"/>
	<rect x="1354.3" y="900.8" fill="#D8D9D9" width="96.4" height="11.4"/>
	<rect x="1354.3" y="992.7" fill="#D8D9D9" width="96.4" height="11.4"/>
	<g>
		<g>
			<path fill="#007D4D" d="M95.4,961.5c-3.8-15.8-18-27.6-35-27.6v47.5L95.4,961.5z"/>
			<path fill="#008753" d="M60.5,933.9c-19.9,0-36,16.1-36,36c0,10.1,4.2,19.3,10.9,25.8l25-14.3V933.9z"/>
			<path fill="#007347" d="M95.4,961.5l-35,19.9l-25,14.3c6.5,6.3,15.3,10.2,25,10.2c19.9,0,36-16.1,36-36
				C96.5,967,96.1,964.2,95.4,961.5z"/>
		</g>
		<path fill="#6A5127" d="M64.6,1044.4v-49.9c0-2.2-1.8-4-4-4s-4,1.8-4,4v49.9H64.6z"/>
	</g>
	<g>
		<g>
			<path fill="#007D4D" d="M602.1,939.7c-4.8-20-22.7-34.9-44.2-34.9v60.1L602.1,939.7z"/>
			<path fill="#008753" d="M557.9,904.8c-25.1,0-45.5,20.4-45.5,45.5c0,12.8,5.3,24.4,13.8,32.6l31.6-18V904.8z"/>
			<path fill="#007347" d="M602.1,939.7l-44.2,25.2l-31.6,18c8.2,7.9,19.3,12.8,31.6,12.8c25.1,0,45.5-20.4,45.5-45.5
				C603.3,946.6,602.9,943.1,602.1,939.7z"/>
		</g>
		<path fill="#6A5127" d="M563,1044.4v-63c0-2.8-2.2-5-5-5c-2.8,0-5,2.2-5,5v63H563z"/>
	</g>
	<g>
		<g>
			<path fill="#F57878" d="M954.1,928c-5.3-22.4-25.4-39-49.4-39v67.1L954.1,928z"/>
			<path fill="#FF7D7D" d="M904.7,889c-28.1,0-50.8,22.8-50.8,50.8c0,14.3,5.9,27.2,15.5,36.5l35.3-20.1V889z"/>
			<path fill="#E66F6F" d="M954.1,928l-49.4,28.1l-35.3,20.1c9.1,8.9,21.6,14.4,35.3,14.4c28.1,0,50.8-22.8,50.8-50.8
				C955.5,935.7,955,931.8,954.1,928z"/>
		</g>
		<path fill="#6A5127" d="M910.5,1045v-70.4c0-3.1-2.5-5.6-5.6-5.6c-3.1,0-5.6,2.5-5.6,5.6v70.4H910.5z"/>
	</g>
	<g>
		<g>
			<path fill="#F57878" d="M171.4,977.8c-3-12.7-14.5-22.2-28.1-22.2v38.2L171.4,977.8z"/>
			<path fill="#FF7D7D" d="M143.2,955.5c-16,0-29,13-29,28.9c0,8.2,3.4,15.5,8.8,20.8l20.1-11.5V955.5z"/>
			<path fill="#E66F6F" d="M171.4,977.8l-28.1,16l-20.1,11.5c5.2,5.1,12.3,8.2,20.1,8.2c16,0,28.9-13,28.9-28.9
				C172.2,982.2,171.9,979.9,171.4,977.8z"/>
		</g>
		<path fill="#6A5127" d="M146.5,1044.4v-40.1c0-1.8-1.4-3.2-3.2-3.2c-1.8,0-3.2,1.4-3.2,3.2v40.1H146.5z"/>
	</g>
	<g>
		<g>
			<path fill="#F0D978" d="M1389.2,961.5c-3.8-15.8-18-27.6-35-27.6v47.5L1389.2,961.5z"/>
			<path fill="#FFE881" d="M1354.3,933.9c-19.9,0-36,16.1-36,36c0,10.1,4.2,19.3,10.9,25.8l25-14.3V933.9z"/>
			<path fill="#E0CA6F" d="M1389.2,961.5l-35,19.9l-25,14.3c6.5,6.3,15.3,10.2,25,10.2c19.9,0,36-16.1,36-36
				C1390.2,967,1389.9,964.2,1389.2,961.5z"/>
		</g>
		<path fill="#6A5127" d="M1358.4,1044.3v-49.9c0-2.2-1.8-4-4-4s-4,1.8-4,4v49.9H1358.4z"/>
	</g>
	<g>
		<g>
			<path fill="#F0D978" d="M308.1,958.4c-3.9-16.4-18.7-28.7-36.3-28.7v49.4L308.1,958.4z"/>
			<path fill="#FFE881" d="M271.8,929.7c-20.6,0-37.4,16.7-37.4,37.4c0,10.5,4.4,20,11.4,26.8l26-14.8V929.7z"/>
			<path fill="#E0CA6F" d="M308.1,958.4l-36.3,20.7l-26,14.8c6.7,6.5,15.9,10.6,26,10.6c20.6,0,37.3-16.7,37.3-37.3
				C309.1,964.1,308.7,961.2,308.1,958.4z"/>
		</g>
		<path fill="#6A5127" d="M276,1044.4v-51.8c0-2.3-1.8-4.1-4.1-4.1c-2.3,0-4.1,1.8-4.1,4.1v51.8H276z"/>
	</g>
	<g>
		<g>
			<path fill="#F0D978" d="M667.5,978.1c-3-12.7-14.4-22.1-28-22.1V994L667.5,978.1z"/>
			<path fill="#FFE881" d="M639.5,955.9c-15.9,0-28.8,12.9-28.8,28.8c0,8.1,3.4,15.4,8.8,20.7l20.1-11.4V955.9z"/>
			<path fill="#E0CA6F" d="M667.5,978.1l-28,16l-20.1,11.4c5.2,5,12.3,8.1,20.1,8.1c15.9,0,28.8-12.9,28.8-28.8
				C668.3,982.4,668,980.2,667.5,978.1z"/>
		</g>
		<path fill="#6A5127" d="M642.7,1044.4v-40c0-1.8-1.4-3.2-3.2-3.2s-3.2,1.4-3.2,3.2v40H642.7z"/>
	</g>
	<g>
		<rect x="1019.9" y="577.9" fill="#FFFFFF" width="12.2" height="71.5"/>
		<rect x="1041.9" y="577.9" fill="#FFFFFF" width="12.2" height="71.5"/>
		<rect x="1063.9" y="577.9" fill="#FFFFFF" width="12.2" height="71.5"/>
		<rect x="997.9" y="577.9" fill="#FFFFFF" width="12.2" height="71.5"/>
		<rect x="976.1" y="577.9" fill="#FFFFFF" width="12" height="71.5"/>
		<rect x="1086" y="577.9" fill="#FFFFFF" width="12" height="71.5"/>
		<rect x="1063.9" y="649.5" fill="#FF8A5C" width="12.2" height="71.5"/>
		<rect x="1041.9" y="649.5" fill="#FF8A5C" width="12.2" height="71.5"/>
		<rect x="1019.9" y="649.5" fill="#FF8A5C" width="12.2" height="71.5"/>
		<rect x="1086" y="649.5" fill="#FF8A5C" width="12" height="71.5"/>
		<rect x="976.1" y="649.5" fill="#FF8A5C" width="12" height="71.5"/>
		<rect x="997.9" y="649.5" fill="#FF8A5C" width="12.2" height="71.5"/>
		<rect x="988.1" y="577.9" fill="#D1D3D4" width="9.8" height="71.5"/>
		<rect x="988.1" y="649.5" fill="#E67C52" width="9.8" height="71.5"/>
		<rect x="1010.1" y="577.9" fill="#D1D3D4" width="9.8" height="71.5"/>
		<rect x="1010.1" y="649.5" fill="#E67C52" width="9.8" height="71.5"/>
		<rect x="1032.1" y="577.9" fill="#D1D3D4" width="9.8" height="71.5"/>
		<rect x="1032.1" y="649.5" fill="#E67C52" width="9.8" height="71.5"/>
		<rect x="1054.1" y="577.9" fill="#D1D3D4" width="9.8" height="71.5"/>
		<rect x="1054.1" y="649.5" fill="#E67C52" width="9.8" height="71.5"/>
		<rect x="1076.1" y="577.9" fill="#D1D3D4" width="9.8" height="71.5"/>
		<rect x="1076.1" y="649.5" fill="#E67C52" width="9.8" height="71.5"/>
	</g>
	<g>
		<rect x="1019.9" y="721" fill="#FFFFFF" width="12.2" height="71.5"/>
		<rect x="1041.9" y="721" fill="#FFFFFF" width="12.2" height="71.5"/>
		<rect x="1063.9" y="721" fill="#FFFFFF" width="12.2" height="71.5"/>
		<rect x="997.9" y="721" fill="#FFFFFF" width="12.2" height="71.5"/>
		<rect x="976.1" y="721" fill="#FFFFFF" width="12" height="71.5"/>
		<rect x="1086" y="721" fill="#FFFFFF" width="12" height="71.5"/>
		<rect x="1063.9" y="792.6" fill="#FF8A5C" width="12.2" height="71.5"/>
		<rect x="1041.9" y="792.6" fill="#FF8A5C" width="12.2" height="71.5"/>
		<rect x="1019.9" y="792.6" fill="#FF8A5C" width="12.2" height="71.5"/>
		<rect x="1086" y="792.6" fill="#FF8A5C" width="12" height="71.5"/>
		<rect x="976.1" y="792.6" fill="#FF8A5C" width="12" height="71.5"/>
		<rect x="997.9" y="792.6" fill="#FF8A5C" width="12.2" height="71.5"/>
		<rect x="988.1" y="721" fill="#D1D3D4" width="9.8" height="71.5"/>
		<rect x="988.1" y="792.6" fill="#E67C52" width="9.8" height="71.5"/>
		<rect x="1010.1" y="721" fill="#D1D3D4" width="9.8" height="71.5"/>
		<rect x="1010.1" y="792.6" fill="#E67C52" width="9.8" height="71.5"/>
		<rect x="1032.1" y="721" fill="#D1D3D4" width="9.8" height="71.5"/>
		<rect x="1032.1" y="792.6" fill="#E67C52" width="9.8" height="71.5"/>
		<rect x="1054.1" y="721" fill="#D1D3D4" width="9.8" height="71.5"/>
		<rect x="1054.1" y="792.6" fill="#E67C52" width="9.8" height="71.5"/>
		<rect x="1076.1" y="721" fill="#D1D3D4" width="9.8" height="71.5"/>
		<rect x="1076.1" y="792.6" fill="#E67C52" width="9.8" height="71.5"/>
	</g>
	<g>
		<rect x="1019.9" y="864.1" fill="#FFFFFF" width="12.2" height="71.5"/>
		<rect x="1041.9" y="864.1" fill="#FFFFFF" width="12.2" height="71.5"/>
		<rect x="1063.9" y="864.1" fill="#FFFFFF" width="12.2" height="71.5"/>
		<rect x="997.9" y="864.1" fill="#FFFFFF" width="12.2" height="71.5"/>
		<rect x="976.1" y="864.1" fill="#FFFFFF" width="12" height="71.5"/>
		<rect x="1086" y="864.1" fill="#FFFFFF" width="12" height="71.5"/>
		<rect x="1063.9" y="935.7" fill="#FF8A5C" width="12.2" height="71.5"/>
		<rect x="1041.9" y="935.7" fill="#FF8A5C" width="12.2" height="71.5"/>
		<rect x="1019.9" y="935.7" fill="#FF8A5C" width="12.2" height="71.5"/>
		<rect x="1086" y="935.7" fill="#FF8A5C" width="12" height="71.5"/>
		<rect x="976.1" y="935.7" fill="#FF8A5C" width="12" height="71.5"/>
		<rect x="997.9" y="935.7" fill="#FF8A5C" width="12.2" height="71.5"/>
		<rect x="988.1" y="864.1" fill="#D1D3D4" width="9.8" height="71.5"/>
		<rect x="988.1" y="935.7" fill="#E67C52" width="9.8" height="71.5"/>
		<rect x="1010.1" y="864.1" fill="#D1D3D4" width="9.8" height="71.5"/>
		<rect x="1010.1" y="935.7" fill="#E67C52" width="9.8" height="71.5"/>
		<rect x="1032.1" y="864.1" fill="#D1D3D4" width="9.8" height="71.5"/>
		<rect x="1032.1" y="935.7" fill="#E67C52" width="9.8" height="71.5"/>
		<rect x="1054.1" y="864.1" fill="#D1D3D4" width="9.8" height="71.5"/>
		<rect x="1054.1" y="935.7" fill="#E67C52" width="9.8" height="71.5"/>
		<rect x="1076.1" y="864.1" fill="#D1D3D4" width="9.8" height="71.5"/>
		<rect x="1076.1" y="935.7" fill="#E67C52" width="9.8" height="71.5"/>
	</g>
	<rect y="1084.1" fill="#6D6E71" width="1568" height="174.7"/>
	<rect y="1164.8" fill="#FFFFFF" width="60.5" height="13.3"/>
	<rect x="94.2" y="1164.8" fill="#FFFFFF" width="60.5" height="13.3"/>
	<rect x="188.4" y="1164.8" fill="#FFFFFF" width="60.5" height="13.3"/>
	<rect x="282.7" y="1164.8" fill="#FFFFFF" width="60.5" height="13.3"/>
	<rect x="376.9" y="1164.8" fill="#FFFFFF" width="60.5" height="13.3"/>
	<rect x="471.1" y="1164.8" fill="#FFFFFF" width="60.5" height="13.3"/>
	<rect x="565.3" y="1164.8" fill="#FFFFFF" width="60.5" height="13.3"/>
	<rect x="659.5" y="1164.8" fill="#FFFFFF" width="60.5" height="13.3"/>
	<rect x="753.8" y="1164.8" fill="#FFFFFF" width="60.5" height="13.3"/>
	<rect x="848" y="1164.8" fill="#FFFFFF" width="60.5" height="13.3"/>
	<rect x="942.2" y="1164.8" fill="#FFFFFF" width="60.5" height="13.3"/>
	<rect x="1036.4" y="1164.8" fill="#FFFFFF" width="60.5" height="13.3"/>
	<rect x="1130.6" y="1164.8" fill="#FFFFFF" width="60.5" height="13.3"/>
	<rect x="1224.9" y="1164.8" fill="#FFFFFF" width="60.5" height="13.3"/>
	<rect x="1319.1" y="1164.8" fill="#FFFFFF" width="60.5" height="13.3"/>
	<rect x="1413.3" y="1164.8" fill="#FFFFFF" width="60.5" height="13.3"/>
	<rect x="1507.5" y="1164.8" fill="#FFFFFF" width="60.5" height="13.3"/>
	<g>
		<g>
			<path fill="#007D4D" d="M1154.4,942c-4.7-19.6-22.2-34.1-43.2-34.1v58.8L1154.4,942z"/>
			<path fill="#008753" d="M1111.1,907.9c-24.6,0-44.5,19.9-44.5,44.5c0,12.5,5.2,23.8,13.5,31.9l30.9-17.6V907.9z"/>
			<path fill="#007347" d="M1154.4,942l-43.2,24.6l-30.9,17.6c8,7.8,18.9,12.6,30.9,12.6c24.6,0,44.5-19.9,44.5-44.5
				C1155.6,948.8,1155.1,945.3,1154.4,942z"/>
		</g>
		<path fill="#6A5127" d="M1116.2,1044.4v-61.6c0-2.7-2.2-4.9-4.9-4.9s-4.9,2.2-4.9,4.9v61.6H1116.2z"/>
	</g>
	<g>
		<g>
			<path fill="#007D4D" d="M999.8,970.4c-3.4-14.1-16.1-24.7-31.2-24.7v42.5L999.8,970.4z"/>
			<path fill="#008753" d="M968.6,945.7c-17.7,0-32.1,14.4-32.1,32.1c0,9,3.8,17.2,9.8,23.1l22.4-12.7V945.7z"/>
			<path fill="#007347" d="M999.8,970.4l-31.2,17.8l-22.4,12.7c5.8,5.6,13.7,9.1,22.4,9.1c17.7,0,32.1-14.4,32.1-32.1
				C1000.7,975.3,1000.4,972.8,999.8,970.4z"/>
		</g>
		<path fill="#6A5127" d="M972.3,1044.4v-44.5c0-2-1.6-3.5-3.5-3.5c-1.9,0-3.5,1.6-3.5,3.5v44.5H972.3z"/>
	</g>
	<g>
		<g>
			<path fill="#007D4D" d="M1514.5,961.5c-3.8-15.8-18-27.6-35-27.6v47.5L1514.5,961.5z"/>
			<path fill="#008753" d="M1479.5,933.9c-19.9,0-36,16.1-36,36c0,10.1,4.2,19.3,10.9,25.8l25-14.3V933.9z"/>
			<path fill="#007347" d="M1514.5,961.5l-35,19.9l-25,14.3c6.5,6.3,15.3,10.2,25,10.2c19.9,0,36-16.1,36-36
				C1515.5,967,1515.1,964.2,1514.5,961.5z"/>
		</g>
		<path fill="#6A5127" d="M1483.6,1044.4v-49.9c0-2.2-1.8-4-4-4c-2.2,0-4,1.8-4,4v49.9H1483.6z"/>
	</g>
	<g>
		<g>
			<path fill="#F57878" d="M1471.7,977.8c-3-12.7-14.5-22.2-28.1-22.2v38.2L1471.7,977.8z"/>
			<path fill="#FF7D7D" d="M1443.5,955.5c-16,0-28.9,13-28.9,28.9c0,8.2,3.4,15.5,8.8,20.8l20.1-11.5V955.5z"/>
			<path fill="#E66F6F" d="M1471.7,977.8l-28.1,16l-20.1,11.5c5.2,5.1,12.3,8.2,20.1,8.2c16,0,29-13,29-28.9
				C1472.5,982.2,1472.2,979.9,1471.7,977.8z"/>
		</g>
		<path fill="#6A5127" d="M1446.8,1044.4v-40.1c0-1.8-1.4-3.2-3.2-3.2c-1.8,0-3.2,1.4-3.2,3.2v40.1H1446.8z"/>
	</g>
	<g>
		<g>
			<path fill="#F57878" d="M716.2,961.6c-3.8-15.8-18-27.6-35-27.6v47.5L716.2,961.6z"/>
			<path fill="#FF7D7D" d="M681.2,934c-19.9,0-36,16.1-36,36c0,10.1,4.2,19.3,10.9,25.8l25-14.3V934z"/>
			<path fill="#E66F6F" d="M716.2,961.6l-35,19.9l-25,14.3c6.5,6.3,15.3,10.2,25,10.2c19.9,0,36-16.1,36-36
				C717.2,967.1,716.8,964.3,716.2,961.6z"/>
		</g>
		<path fill="#6A5127" d="M685.3,1044.5v-49.9c0-2.2-1.8-4-4-4c-2.2,0-4,1.8-4,4v49.9H685.3z"/>
	</g>
	<g>
		<g>
			<path fill="#007D4D" d="M336.9,985c-2.7-11.3-12.9-19.8-25-19.8v34.1L336.9,985z"/>
			<path fill="#008753" d="M311.8,965.3c-14.2,0-25.8,11.5-25.8,25.8c0,7.3,3,13.8,7.8,18.5l17.9-10.2V965.3z"/>
			<path fill="#007347" d="M336.9,985l-25,14.3l-17.9,10.2c4.6,4.5,11,7.3,17.9,7.3c14.2,0,25.8-11.5,25.8-25.8
				C337.6,989,337.4,987,336.9,985z"/>
		</g>
		<path fill="#6A5127" d="M314.8,1044.4v-35.7c0-1.6-1.3-2.8-2.8-2.8c-1.6,0-2.8,1.3-2.8,2.8v35.7H314.8z"/>
	</g>
	<path fill="#C8DDF0" d="M506.2,447.6c-7.6-20.3-27-33.8-48.7-33.8c-23.3,0-43.4,15.2-49.9,37.4c-4.2-1.8-8.7-2.8-13.3-2.8
		c-18.6,0-33.7,15.1-33.7,33.7c0,4.5,0.9,8.9,2.6,13c0.4,0.9,1.3,1.5,2.2,1.5h165.1c1.1,0,2.1-0.8,2.4-1.8c0.8-3.2,1.2-6.4,1.2-9.5
		C534,468,522.6,452.7,506.2,447.6z"/>
	<path fill="#C8DDF0" d="M163.8,370.2c5.6-15,20-25,36-25c17.3,0,32.1,11.3,36.9,27.6c3.1-1.3,6.5-2,9.9-2
		c13.8,0,24.9,11.2,24.9,24.9c0,3.3-0.6,6.6-1.9,9.6c-0.3,0.7-0.9,1.1-1.7,1.1H145.9c-0.8,0-1.5-0.6-1.7-1.4c-0.6-2.4-0.9-4.7-0.9-7
		C143.2,385.3,151.7,374,163.8,370.2z"/>
	<path fill="#C8DDF0" d="M781,197.5c3.4-6.1,5.2-12.9,5.2-19.9c0-22.4-18.2-40.6-40.6-40.6c-5.3,0-10.4,1-15.3,3
		c-9.6-20.9-30.4-34.3-53.6-34.3c-22.1,0-41.9,12-52.2,31.6c-1.6-0.2-3-0.3-4.4-0.3c-12.8,0-24.7,6-32.3,16.1
		c-5.1-3.6-11.2-5.6-17.4-5.6c-16.6,0-30.1,13.5-30.1,30.1c0,7.5,2.8,14.8,8,20.3c0.5,0.5,1.1,0.8,1.8,0.8h228.8
		C779.7,198.8,780.5,198.3,781,197.5z"/>
	<path fill="#C8DDF0" d="M1376.6,391.3c-1,0-2.1,0.1-3.3,0.2c-5.9-8.9-15.6-14.2-26.2-14.2c-2,0-4.1,0.2-6.4,0.8
		c-3.4-9.8-12.6-16.5-23.1-16.5c-11.2,0-20.7,7.4-23.6,18c-3.8-1.5-7.7-2.3-11.6-2.3c-17.4,0-31.6,14.2-31.6,31.6
		c0,10.2,5,19.8,13.4,25.7c0.3,0.2,0.8,0.4,1.2,0.4h125.7c0.5,0,1-0.2,1.3-0.5c5.5-4.7,8.7-11.5,8.7-18.6
		C1401.2,402.4,1390.2,391.3,1376.6,391.3z"/>
	<path fill="#FFFFFF" d="M124.7,560.5c1,0,2.1,0.1,3.3,0.2c5.9-8.9,15.6-14.2,26.2-14.2c2,0,4.1,0.2,6.4,0.8
		c3.4-9.8,12.6-16.5,23.1-16.5c11.2,0,20.7,7.4,23.6,18c3.8-1.5,7.7-2.3,11.6-2.3c17.4,0,31.6,14.2,31.6,31.6
		c0,10.2-5,19.8-13.4,25.7c-0.4,0.2-0.8,0.4-1.2,0.4H110.2c-0.5,0-1-0.2-1.3-0.5c-5.5-4.7-8.7-11.5-8.7-18.6
		C100.1,571.6,111.2,560.5,124.7,560.5z"/>
	<path fill="#FFFFFF" d="M1274.1,186.3c-23.5,0-44.7,14.4-53.5,36c-0.8-0.1-1.5-0.1-2.3-0.1c-20.2,0-36.5,16.4-36.5,36.6
		c0,9.5,3.7,18.6,10.3,25.4c0.6,0.6,1.3,0.9,2.1,0.9h119.3c0.8,0,1.6-0.3,2.1-0.9c10.5-10.9,16.3-25.1,16.3-40.2
		C1331.9,212.2,1305.9,186.3,1274.1,186.3z"/>
	<path fill="#FFFFFF" d="M430,235.7c23.5,0,44.7,14.4,53.5,36c0.8-0.1,1.5-0.1,2.3-0.1c20.2,0,36.5,16.4,36.5,36.6
		c0,9.5-3.7,18.6-10.3,25.4c-0.6,0.6-1.3,0.9-2.1,0.9H390.6c-0.8,0-1.6-0.3-2.1-0.9c-10.5-10.9-16.3-25.1-16.3-40.2
		C372.2,261.6,398.1,235.7,430,235.7z"/>
	<path fill="#FFFFFF" d="M1358.3,515.1c12.9,0,24.5,7.9,29.3,19.8c0.4,0,0.8,0,1.3,0c11.1,0,20,9,20,20c0,5.2-2,10.2-5.7,13.9
		c-0.3,0.3-0.7,0.5-1.2,0.5h-65.4c-0.4,0-0.9-0.2-1.2-0.5c-5.8-6-8.9-13.8-8.9-22C1326.6,529.3,1340.8,515.1,1358.3,515.1z"/>
	<rect y="1258.8" fill="#5EAB8D" width="1568" height="141.2"/>
</g>
</svg>
